<?xml version="1.0" encoding="utf-8"?>
<!-- Generator: Adobe Illustrator 24.3.0, SVG Export Plug-In . SVG Version: 6.00 Build 0)  -->
<svg version="1.1" id="Layer_1" xmlns="http://www.w3.org/2000/svg" xmlns:xlink="http://www.w3.org/1999/xlink" x="0px" y="0px"
	 viewBox="0 0 512 512" style="enable-background:new 0 0 512 512;" xml:space="preserve">
<style type="text/css">
	.st0{fill:#252F3E;}
	.st1{fill-rule:evenodd;clip-rule:evenodd;fill:#FF9900;}
	.st2{fill:#5C626B;}
	.st3{fill:#535860;}
	.st4{fill:#DFE0E0;}
	.st5{fill:#C9CACA;}
	.st6{fill:#FBE067;}
	.st7{fill:#E7CE5F;}
	.st8{fill:#494F57;}
	.st9{fill:#CB556A;}
	.st10{fill:#E15F76;}
	.st11{fill:#F7C2AD;}
</style>
<g>
	<path class="st0" d="M155.4,131.8c0,5.6,0.6,10.1,1.7,13.5c1.2,3.3,2.7,7,4.8,10.9c0.8,1.2,1.1,2.4,1.1,3.5c0,1.5-0.9,3-2.9,4.5
		l-9.5,6.4c-1.4,0.9-2.7,1.4-3.9,1.4c-1.5,0-3-0.8-4.5-2.1c-2.1-2.3-3.9-4.7-5.4-7.1c-1.5-2.6-3-5.4-4.7-8.9
		c-11.8,13.9-26.6,20.9-44.5,20.9c-12.7,0-22.8-3.6-30.2-10.9c-7.4-7.3-11.2-16.9-11.2-29c0-12.9,4.5-23.3,13.8-31.2
		s21.5-11.8,37-11.8c5.1,0,10.4,0.5,16,1.2c5.6,0.8,11.3,2,17.4,3.3v-11c0-11.5-2.4-19.5-7.1-24.2c-4.8-4.7-13-7-24.6-7
		c-5.3,0-10.7,0.6-16.3,2s-11,3-16.3,5.1c-2.4,1.1-4.2,1.7-5.3,2c-1.1,0.3-1.8,0.5-2.4,0.5c-2.1,0-3.2-1.5-3.2-4.7v-7.4
		c0-2.4,0.3-4.2,1.1-5.3s2.1-2.1,4.2-3.2c5.3-2.7,11.6-5,19.1-6.8c7.4-2,15.3-2.9,23.6-2.9c18,0,31.2,4.1,39.6,12.2
		c8.3,8.2,12.6,20.6,12.6,37.2v49H155.4z M94.1,154.8c5,0,10.1-0.9,15.6-2.7c5.4-1.8,10.3-5.1,14.4-9.7c2.4-2.9,4.2-6,5.1-9.7
		c0.9-3.6,1.5-8,1.5-13.2v-6.4c-4.4-1.1-9.1-2-13.9-2.6s-9.5-0.9-14.2-0.9c-10.1,0-17.5,2-22.5,6s-7.4,9.8-7.4,17.4
		c0,7.1,1.8,12.4,5.6,16C81.8,153,87.1,154.8,94.1,154.8z M215.5,171.2c-2.7,0-4.5-0.5-5.7-1.5c-1.2-0.9-2.3-3-3.2-5.9L171,46.8
		c-0.9-3-1.4-5-1.4-6c0-2.4,1.2-3.8,3.6-3.8h14.8c2.9,0,4.8,0.5,5.9,1.5c1.2,0.9,2.1,3,3,5.9l25.4,100.1L246,44.4
		c0.8-3,1.7-5,2.9-5.9c1.2-0.9,3.3-1.5,6-1.5h12.1c2.9,0,4.8,0.5,6,1.5c1.2,0.9,2.3,3,2.9,5.9l23.9,101.3L326,44.4c0.9-3,2-5,3-5.9
		c1.2-0.9,3.2-1.5,5.9-1.5H349c2.4,0,3.8,1.2,3.8,3.8c0,0.8-0.2,1.5-0.3,2.4s-0.5,2.1-1.1,3.8L315,163.9c-0.9,3-2,5-3.2,5.9
		c-1.2,0.9-3.2,1.5-5.7,1.5h-13c-2.9,0-4.8-0.5-6-1.5c-1.2-1.1-2.3-3-2.9-6l-23.4-97.5l-23.3,97.4c-0.8,3-1.7,5-2.9,6
		c-1.2,1.1-3.3,1.5-6,1.5H215.5z M409.8,175.2c-7.9,0-15.7-0.9-23.3-2.7c-7.6-1.8-13.5-3.8-17.4-6c-2.4-1.4-4.1-2.9-4.7-4.2
		c-0.6-1.4-0.9-2.9-0.9-4.2v-7.7c0-3.2,1.2-4.7,3.5-4.7c0.9,0,1.8,0.2,2.7,0.5c0.9,0.3,2.3,0.9,3.8,1.5c5.1,2.3,10.7,4.1,16.6,5.3
		c6,1.2,11.9,1.8,18,1.8c9.5,0,16.9-1.7,22.1-5c5.1-3.3,7.9-8.2,7.9-14.4c0-4.2-1.4-7.7-4.1-10.6c-2.7-2.9-7.9-5.4-15.3-7.9
		l-21.9-6.8c-11-3.5-19.2-8.6-24.2-15.4c-5-6.7-7.6-14.1-7.6-21.9c0-6.4,1.4-11.9,4.1-16.8c2.7-4.8,6.4-9.1,10.9-12.4
		c4.5-3.5,9.7-6,15.7-7.9c6-1.8,12.4-2.6,19.1-2.6c3.3,0,6.8,0.2,10.1,0.6c3.5,0.5,6.7,1.1,9.8,1.7c3,0.8,5.9,1.5,8.6,2.4
		c2.7,0.9,4.8,1.8,6.4,2.7c2.1,1.2,3.6,2.4,4.5,3.8c0.9,1.2,1.4,2.9,1.4,5v7.1c0,3.2-1.2,4.8-3.5,4.8c-1.2,0-3.2-0.6-5.7-1.8
		c-8.6-3.9-18.3-5.9-29-5.9c-8.6,0-15.4,1.4-20.1,4.2c-4.7,2.9-7.1,7.3-7.1,13.5c0,4.2,1.5,7.9,4.5,10.7c3,2.9,8.6,5.7,16.6,8.3
		l21.5,6.8c10.9,3.5,18.8,8.3,23.4,14.5c4.7,6.2,7,13.3,7,21.2c0,6.5-1.4,12.4-3.9,17.5c-2.7,5.1-6.4,9.7-11,13.3
		c-4.7,3.8-10.3,6.5-16.8,8.5C424.6,174.2,417.5,175.2,409.8,175.2z"/>
	<g>
		<path class="st1" d="M438.4,248.7c-49.8,36.7-122,56.3-184.2,56.3c-87.1,0-165.6-32.2-224.9-85.7c-4.7-4.2-0.5-10,5.1-6.7
			c64.1,37.2,143.2,59.7,225,59.7c55.2,0,115.8-11.5,171.6-35.1C439.4,233.5,446.6,242.7,438.4,248.7z"/>
		<path class="st1" d="M459.1,225.1c-6.4-8.2-42-3.9-58.2-2c-4.8,0.6-5.6-3.6-1.2-6.8c28.4-20,75.2-14.2,80.6-7.6
			c5.4,6.8-1.5,53.5-28.1,75.9c-4.1,3.5-8,1.7-6.2-2.9C452,266.9,465.5,233.2,459.1,225.1z"/>
	</g>
</g>
<path class="st2" d="M251.2,376.3l-19,19l-35.8-35.8c-5.2-5.2-5.2-13.7,0-19c5.2-5.2,13.7-5.2,19,0L251.2,376.3z"/>
<path class="st3" d="M202.4,337c-2.2,0.6-4.3,1.7-6,3.5c-5.2,5.2-5.2,13.7,0,19l35.8,35.8l9.5-9.5L205.9,350
	C202.3,346.5,201.2,341.5,202.4,337z"/>
<path class="st4" d="M232.1,395.3l19-19l51.8,51.8l-19,19L232.1,395.3z"/>
<path class="st5" d="M232.1,395.3l9.5-9.5l51.8,51.8l-9.5,9.5L232.1,395.3z"/>
<path class="st6" d="M267.8,376.4L232.2,412c-1.1,1.1-2.9,1.1-4,0l-12.7-12.7c-1.1-1.1-1.1-2.9,0-4l35.6-35.6c1.1-1.1,2.9-1.1,4,0
	l12.7,12.7C268.8,373.5,268.8,375.3,267.8,376.4z"/>
<path class="st7" d="M241.4,398.9l-12.7-12.7c-1.1-1.1-1.1-2.9,0-4l-13.1,13.1c-1.1,1.1-1.1,2.9,0,4l12.7,12.7c1.1,1.1,2.9,1.1,4,0
	l13.1-13.1C244.2,399.9,242.4,399.9,241.4,398.9z"/>
<path class="st2" d="M424.3,376.3l19,19l35.8-35.8c5.2-5.2,5.2-13.7,0-19c-5.2-5.2-13.7-5.2-19,0L424.3,376.3z"/>
<path class="st3" d="M473,337c2.2,0.6,4.3,1.7,6,3.5c5.2,5.2,5.2,13.7,0,19l-35.8,35.8l-9.5-9.5l35.8-35.8
	C473.1,346.5,474.2,341.5,473,337z"/>
<path class="st4" d="M391.5,447.1l-18.9-19l51.8-51.8l19,19L391.5,447.1z"/>
<path class="st5" d="M382,437.6l51.8-51.8l9.5,9.5l-51.8,51.8L382,437.6z"/>
<path class="st6" d="M407.7,376.4l35.6,35.6c1.1,1.1,2.9,1.1,4,0l12.7-12.7c1.1-1.1,1.1-2.9,0-4l-35.6-35.6c-1.1-1.1-2.9-1.1-4,0
	l-12.7,12.7C406.6,373.5,406.6,375.3,407.7,376.4z"/>
<path class="st7" d="M434.1,398.9l12.7-12.7c1.1-1.1,1.1-2.9,0-4l13.1,13.1c1.1,1.1,1.1,2.9,0,4L447.2,412c-1.1,1.1-2.9,1.1-4,0
	l-13.1-13.1C431.3,399.9,433,399.9,434.1,398.9z"/>
<path class="st8" d="M235.2,486.5c0-56.6,45.9-102.5,102.5-102.5s102.5,45.9,102.5,102.5H235.2z"/>
<path class="st3" d="M440.2,486.5H271.6l97.6-97.6C410.4,402.2,440.2,440.8,440.2,486.5z"/>
<path class="st9" d="M305.7,486.5h-34.1l97.6-97.6c8.2,2.7,16.1,6.4,23.2,10.8L305.7,486.5z"/>
<path class="st2" d="M235.2,486.5h168.6l-97.6-97.6C265.1,402.2,235.2,440.8,235.2,486.5z"/>
<path class="st3" d="M347.4,384.5c-3.1-0.3-6.4-0.5-9.6-0.5c-56.6,0-102.5,45.9-102.5,102.5h19.3
	C254.4,433.1,295.3,389.3,347.4,384.5z"/>
<path class="st10" d="M369.7,486.5h34.1l-97.6-97.6c-8.2,2.7-16.1,6.4-23.2,10.8L369.7,486.5z"/>
<path class="st9" d="M311.8,394.4l-5.6-5.6c-8.2,2.7-16.1,6.4-23.2,10.8l8.1,8.1C297.5,402.6,304.4,398.1,311.8,394.4z"/>
<path class="st2" d="M447.9,290.7c0,60.8-49.3,110.1-110.1,110.1s-110.1-49.3-110.1-110.1S277,180.6,337.8,180.6
	S447.9,229.8,447.9,290.7z"/>
<path class="st3" d="M246.1,290.7c0-57.7,44.4-105.1,100.9-109.7c-3-0.3-6.1-0.4-9.2-0.4c-60.8,0-110.1,49.3-110.1,110.1
	S277,400.8,337.8,400.8c3.1,0,6.2-0.1,9.2-0.4C290.5,395.7,246.1,348.4,246.1,290.7z"/>
<path class="st3" d="M227.6,290.7c0,2.7,0.1,5.4,0.3,8c0.4,0,0.9,0.1,1.3,0.1h217.1c0.4,0,0.9,0,1.3-0.1c0.2-2.7,0.3-5.3,0.3-8
	c0-8.4-0.9-16.5-2.7-24.4H230.3C228.5,274.1,227.6,282.3,227.6,290.7z"/>
<path class="st11" d="M378.1,337.5l-13.7-5.7c-17-7.1-36.2-7.1-53.2,0l-13.7,5.7c-16.4,6.8-34.5-5.2-34.5-23c0-13.8,11.2-25,25-25
	h99.9c13.8,0,25,11.2,25,25C412.6,332.2,394.5,344.4,378.1,337.5z"/>
<path class="st10" d="M229.1,289.5h217.1c4.3,0,7.7-3.6,7.4-7.9c-1-12-3.9-23.5-8.4-34.1c-1.1-2.7-3.8-4.5-6.8-4.5H237
	c-2.9,0-5.6,1.7-6.8,4.5c-4.6,10.6-7.4,22.1-8.4,34.1C221.5,285.8,224.8,289.5,229.1,289.5z"/>
<path class="st9" d="M240.3,281.6c1-12,3.9-23.5,8.4-34.1c1.1-2.7,3.8-4.5,6.8-4.5H237c-2.9,0-5.6,1.7-6.8,4.5
	c-4.6,10.6-7.4,22.1-8.4,34.1c-0.3,4.3,3.1,7.9,7.4,7.9h18.5C243.3,289.5,239.9,285.8,240.3,281.6z"/>
<g>
	<path class="st8" d="M208.5,352.7l-9.5,9.5l6.6,6.6l9.5-9.5c1.8-1.8,1.8-4.8,0-6.6S210.3,350.8,208.5,352.7z"/>
	<path class="st8" d="M219.4,363.5l-9.5,9.5l6.6,6.6l9.4-9.5c1.8-1.8,1.8-4.8,0-6.6C224.1,361.7,221.2,361.7,219.4,363.5z"/>
	<path class="st8" d="M466.9,352.7c-1.8-1.8-4.8-1.8-6.6,0c-1.8,1.8-1.8,4.8,0,6.6l9.5,9.5l6.6-6.6L466.9,352.7z"/>
	<path class="st8" d="M456,363.5c-1.8-1.8-4.8-1.8-6.6,0c-1.8,1.8-1.8,4.8,0,6.6l9.5,9.5l6.6-6.6L456,363.5z"/>
	<path class="st8" d="M377,317.4c-2.5,0-4.5-2-4.5-4.5v-7c0-2.5,2-4.5,4.5-4.5s4.5,2,4.5,4.5v7C381.4,315.4,379.4,317.4,377,317.4z"
		/>
	<path class="st8" d="M298.5,317.4c-2.5,0-4.5-2-4.5-4.5v-7c0-2.5,2-4.5,4.5-4.5s4.5,2,4.5,4.5v7C303,315.4,301,317.4,298.5,317.4z"
		/>
</g>
</svg>
